<svg width="990" height="135" viewBox="0 0 990 135" fill="none" xmlns="http://www.w3.org/2000/svg">
<path d="M59.0822 133C52.8488 133 48.2985 129.385 45.4312 122.154L0.551152 2.09999H23.1782L59.8302 105.698H60.0172L96.8562 2.09999H119.296L69.5542 133H59.0822ZM135.803 2.09999H157.682V133H135.803V2.09999ZM185.066 2.09999H252.573C263.294 2.09999 271.959 5.02966 278.566 10.889C285.173 16.7483 288.477 24.4777 288.477 34.077V47.354C288.477 53.8367 286.482 59.5713 282.493 64.558C278.628 69.42 273.205 73.0353 266.224 75.404V75.778C270.213 78.1467 273.392 81.201 275.761 84.941C278.254 88.5563 280.374 93.2937 282.119 99.153L292.591 133H269.964L259.866 100.649C258.245 95.039 255.752 90.738 252.386 87.746C249.02 84.754 245.093 83.258 240.605 83.258H206.945V133H185.066V2.09999ZM247.711 64.371C253.446 64.371 257.996 62.8127 261.362 59.696C264.853 56.5793 266.598 52.5277 266.598 47.541V34.638C266.598 30.6487 265.289 27.4073 262.671 24.914C260.053 22.4207 256.562 21.174 252.199 21.174H206.945V64.371H247.711ZM340.131 20.987H298.617V2.09999H403.524V20.987H362.01V133H340.131V20.987ZM454.025 134.496C441.059 134.496 430.837 130.756 423.357 123.276C415.877 115.796 412.137 105.573 412.137 92.608H433.642C433.642 99.5893 435.449 105.137 439.065 109.251C442.805 113.24 447.916 115.235 454.399 115.235H475.156C481.264 115.235 486.189 113.926 489.929 111.308C493.669 108.565 495.539 105.012 495.539 100.649V92.421C495.539 89.055 494.23 86.25 491.612 84.006C488.994 81.762 485.254 80.2037 480.392 79.331L446.358 73.534C435.761 71.7887 427.595 68.298 421.861 63.062C416.251 57.826 413.446 51.1563 413.446 43.053V32.768C413.446 26.41 415.129 20.8 418.495 15.938C421.985 11.076 426.847 7.33599 433.081 4.71799C439.314 1.97533 446.545 0.603999 454.773 0.603999H475.904C483.633 0.603999 490.427 2.22466 496.287 5.46599C502.271 8.58266 506.883 13.0707 510.125 18.93C513.366 24.7893 514.987 31.5213 514.987 39.126H493.669C493.669 33.3913 491.986 28.7787 488.62 25.288C485.378 21.6727 481.14 19.865 475.904 19.865H454.773C448.913 19.865 444.176 21.174 440.561 23.792C437.07 26.2853 435.325 29.7137 435.325 34.077V40.809C435.325 44.2997 436.571 47.2293 439.065 49.598C441.558 51.842 445.173 53.338 449.911 54.086L483.945 60.07C494.666 61.94 502.894 65.4307 508.629 70.542C514.488 75.5287 517.418 81.949 517.418 89.803V101.958C517.418 108.316 515.672 113.988 512.182 118.975C508.691 123.837 503.767 127.639 497.409 130.382C491.051 133.125 483.758 134.496 475.53 134.496H454.025ZM537.517 2.09999H604.65C615.621 2.09999 624.472 5.21666 631.204 11.45C637.936 17.5587 641.302 25.662 641.302 35.76V53.712C641.302 64.3087 637.749 72.8483 630.643 79.331C623.662 85.689 614.437 88.868 602.967 88.868H559.396V133H537.517V2.09999ZM602.593 69.794C607.705 69.794 611.756 68.2357 614.748 65.119C617.865 62.0023 619.423 57.9507 619.423 52.964V36.321C619.423 31.7083 618.052 28.0307 615.309 25.288C612.567 22.5453 608.889 21.174 604.276 21.174H559.396V69.794H602.593ZM721.183 100.649H669.197L657.042 133H634.415L685.279 2.09999H695.19C701.922 2.09999 706.597 5.40366 709.215 12.011L755.965 133H733.151L721.183 100.649ZM675.368 82.323H715.012L695.377 29.215H695.19L675.368 82.323ZM808.973 134.496C799.747 134.496 791.644 132.501 784.663 128.512C777.681 124.398 772.258 118.663 768.394 111.308C764.529 103.828 762.597 95.226 762.597 85.502V49.598C762.597 39.874 764.529 31.3343 768.394 23.979C772.383 16.499 777.931 10.7643 785.037 6.775C792.143 2.661 800.371 0.603999 809.721 0.603999H829.543C838.394 0.603999 846.248 2.53633 853.105 6.40099C859.961 10.141 865.26 15.5017 869 22.483C872.74 29.3397 874.61 37.3183 874.61 46.419H853.105C853.105 38.4403 850.923 32.02 846.56 27.158C842.196 22.296 836.524 19.865 829.543 19.865H809.721C802.116 19.865 796.007 22.67 791.395 28.28C786.782 33.89 784.476 41.2453 784.476 50.346V84.754C784.476 93.9793 786.72 101.397 791.208 107.007C795.696 112.492 801.617 115.235 808.973 115.235H829.169C836.399 115.235 842.259 112.492 846.747 107.007C851.235 101.522 853.479 94.4157 853.479 85.689H874.984C874.984 95.413 873.051 103.953 869.187 111.308C865.447 118.663 860.086 124.398 853.105 128.512C846.248 132.501 838.269 134.496 829.169 134.496H808.973ZM909.338 133C904.476 133 900.549 131.566 897.557 128.699C894.689 125.707 893.256 121.842 893.256 117.105V2.09999H989.187V20.987H915.135V56.517H983.577V75.591H915.135V114.113H989.187V133H909.338Z" fill="white"/>
</svg>
